<?xml version="1.0" encoding="UTF-8"?>
<svg xmlns="http://www.w3.org/2000/svg" width="131.917mm" height="32mm" version="1.1" viewBox="0 0 373.938 90.709">
  <!-- Generator: Adobe Illustrator 29.5.1, SVG Export Plug-In . SVG Version: 2.1.0 Build 141)  -->
  <g id="Schutzraum">
    <rect width="373.938" height="90.709" fill="none"/>
    <rect width="373.938" height="90.709" fill="none"/>
    <rect width="373.938" height="90.709" fill="none"/>
    <rect width="373.938" height="90.709" fill="none"/>
    <rect width="373.938" height="90.709" fill="none"/>
  </g>
  <g id="Logo">
    <g>
      <path d="M299.122,67.853h4.345v-9.113h2.323c1.75,0,2.505,1.026,2.566,2.716l.12,4.135c.029.844.12,1.658.543,2.263h4.707v-.181c-.814-.424-.936-1.6-.966-3.862-.06-4.557-.513-6.188-3.47-6.579v-.06c2.444-.514,3.591-2.444,3.591-5.311,0-3.682-2.173-5.553-5.733-5.553h-8.026v21.546ZM303.466,49.506h2.053c1.961,0,3.017.996,3.017,2.987,0,2.323-1.178,3.228-3.26,3.228h-1.811v-6.216Z" fill="#8ebae5"/>
      <path d="M235.058,46.307v15.027c0,5.764,3.35,6.941,6.88,6.941s6.881-1.448,6.881-6.941v-15.027h-4.346v15.027c0,2.143-.513,3.742-2.535,3.742s-2.534-1.6-2.534-3.742v-15.027h-4.346Z" fill="#8ebae5"/>
    </g>
    <polygon points="249.882 46.307 249.882 67.852 253.865 67.852 253.865 52.765 253.925 52.765 259.236 67.852 264.185 67.852 264.185 46.307 260.202 46.307 260.202 61.062 260.142 61.062 254.891 46.307 249.882 46.307" fill="#8ebae5"/>
    <rect x="265.302" y="46.307" width="4.345" height="21.544" fill="#8ebae5"/>
    <polygon points="269.946 46.307 274.894 67.852 280.477 67.852 285.424 46.307 280.929 46.307 277.731 62.24 277.641 62.24 274.592 46.307 269.946 46.307" fill="#8ebae5"/>
    <polygon points="285.812 46.307 285.812 67.852 298.154 67.852 298.154 64.292 290.158 64.292 290.158 58.498 297.4 58.498 297.4 54.937 290.158 54.937 290.158 49.868 297.852 49.868 297.852 46.307 285.812 46.307" fill="#8ebae5"/>
    <path d="M313.242,61.123v.875c0,3.984,1.932,6.277,6.851,6.277,4.707,0,7.482-2.052,7.482-6.609,0-2.625-.845-4.284-4.103-5.703l-3.35-1.447c-1.841-.785-2.232-1.6-2.232-2.928,0-1.267.513-2.505,2.474-2.505,1.659,0,2.354,1.177,2.354,3.199h4.164v-.605c0-4.134-2.808-5.792-6.669-5.792-4.105,0-6.669,2.142-6.669,6.335,0,3.592,1.78,5.191,5.643,6.519,2.867.996,3.863,1.72,3.863,3.682,0,1.811-1.268,2.655-2.596,2.655-2.294,0-2.866-1.297-2.866-3.319v-.634h-4.346Z" fill="#8ebae5"/>
    <rect x="328.143" y="46.307" width="4.346" height="21.544" fill="#8ebae5"/>
    <polygon points="355.058 46.307 352.04 54.635 351.98 54.635 349.144 46.307 333.058 46.307 333.058 49.868 337.765 49.868 337.765 67.852 342.111 67.852 342.111 49.868 345.776 49.868 349.836 59.373 349.836 67.852 354.183 67.852 354.183 59.373 359.766 46.307 355.058 46.307" fill="#8ebae5"/>
    <g>
      <path d="M196.887,44.347h-7.2v-21.641h11.807c3.202,0,5.964,2.072,6.864,4.82.834,2.546.121,5.312-1.761,7.281.25.678.494,1.209.726,1.818.523,1.205,1.001,2.41,1.524,3.6l1.713,4.122h-7.301s-.059-.174-.116-.247c-.29-.638-.552-1.321-.842-1.959l-1.756-4.166c-.697-1.684-1.395-3.275-2.09-4.958.868-.024,1.518.139,2.357-.247.59-.29,1.484-1.011,1.507-2.394-.022-.685-.213-1.204-.666-1.744-.455-.502-1.112-.874-1.97-.886,0,0-2.798,0-2.797,0v16.601Z" fill="#00549f"/>
      <path d="M272.092,22.706v21.641h-7.199v-8.824h-5.041v8.824c-1.307,0-2.715-.014-4.02,0h-3.18v-16.633h-5.036v16.633h-7.2v-16.633h-5.079v16.633h-7.417c-1.292-3.12-2.655-6.27-3.919-9.376-.144-.653-.29-1.307-.478-1.945v11.321h-7.433c-1.473-3.425-2.888-6.782-4.357-10.258-.509-1.204-.926-2.184-1.452-3.436l-.072-.164-1.143-2.685-1.639-3.835c-.144-.435-.376-.828-.521-1.263h7.415c1.523,3.701,3.062,7.359,4.659,11.002l.044.087c-.059-.421-.19-.958-.263-1.364v-6.459c.015-1.031,0-2.207,0-3.266h7.432c.094.236.146.363.218.552.871,2.046,1.699,4.078,2.57,6.11l1.944,4.427c-.044-.465-.145-.914-.204-1.364v-9.725h29.132v7.809h5.041v-7.809h7.199Z" fill="#00549f"/>
    </g>
    <path d="M292.977,36.193l2.093-9.73h.06l2.092,9.73h-4.244ZM278.55,36.193l2.091-9.73h.061l2.092,9.73h-4.243ZM297.797,22.704h-5.397l-4.516,17.059-4.516-17.059h-5.396l-5.728,21.643h4.547l1-4.577h5.761l.999,4.577h6.668l1-4.577h5.76l1,4.577h4.547l-5.728-21.643Z" fill="#8ebae5"/>
    <path d="M316.526,30.089c0-3.138-.452-7.695-6.669-7.695-6.517,0-7.333,4.647-7.333,11.195s.817,11.195,7.333,11.195c5.703,0,6.85-4.013,6.85-8.66h-4.345c0,4.647-1.146,5.462-2.716,5.462-1.871,0-2.776-1.177-2.776-7.695,0-6.095.514-8.298,2.716-8.298,1.962,0,2.596,1.358,2.596,4.496h4.345Z" fill="#8ebae5"/>
    <polygon points="317.565 44.347 321.929 44.347 321.929 34.739 327.021 34.739 327.021 44.347 331.386 44.347 331.386 22.707 327.021 22.707 327.021 30.981 321.929 30.981 321.929 22.707 317.565 22.707 317.565 44.347" fill="#8ebae5"/>
    <polygon points="332.332 22.702 332.332 44.347 344.732 44.347 344.732 40.77 336.699 40.77 336.699 34.949 343.974 34.949 343.974 31.372 336.699 31.372 336.699 26.279 344.428 26.279 344.428 22.702 332.332 22.702" fill="#8ebae5"/>
    <polygon points="345.38 22.707 345.38 44.347 349.381 44.347 349.381 29.192 349.441 29.192 354.776 44.347 359.747 44.347 359.747 22.707 355.746 22.707 355.746 37.527 355.685 37.527 350.411 22.707 345.38 22.707" fill="#8ebae5"/>
    <rect x="175.013" y="22.677" width="1" height="45.355" fill="#00549f"/>
    <g>
      <path d="M138.226,64.017c.09-.297.289-.444.595-.444.3,0,.495.147.585.444.09.297.135.738.135,1.325s-.045,1.028-.135,1.325c-.09.297-.285.444-.585.444-.306,0-.505-.147-.595-.444-.09-.297-.135-.738-.135-1.325s.045-1.028.135-1.325M136.71,69.792h1.38v-2.26h.02c.147.213.312.372.495.479.184.108.405.16.665.16.567,0,.984-.222,1.25-.665.267-.443.4-1.165.4-2.165s-.133-1.722-.4-2.165c-.266-.443-.683-.665-1.25-.665-.28,0-.515.055-.705.165-.19.11-.362.292-.515.545h-.02v-.57h-1.32v7.141ZM134.326,68.032h1.38v-5.381h-1.38v5.381ZM134.326,61.992h1.38v-1.181h-1.38v1.181ZM129.245,68.032h1.38v-3.57c0-.593.244-.89.73-.89.207,0,.357.055.45.164.094.11.14.306.14.586v3.71h1.38v-3.99c0-.54-.118-.931-.355-1.17-.236-.24-.575-.36-1.015-.36-.606,0-1.043.23-1.31.691h-.02v-2.311h-1.38v7.141ZM124.513,66.271v.19c0,.26.03.495.09.705.06.21.165.39.315.54.15.149.352.265.605.345.254.08.577.12.97.12.287,0,.554-.035.8-.105.247-.069.459-.175.635-.314.177-.141.315-.317.415-.53s.15-.46.15-.74c0-.406-.09-.728-.27-.965s-.486-.428-.92-.575l-.83-.279c-.233-.073-.391-.163-.475-.271-.083-.106-.125-.227-.125-.359,0-.193.065-.339.195-.436.13-.097.282-.144.455-.144.227,0,.385.064.475.194.09.13.135.335.135.615h1.24v-.22c0-.487-.15-.863-.45-1.13-.3-.268-.763-.4-1.39-.4-.353,0-.655.043-.905.13s-.455.203-.615.351c-.16.147-.276.317-.35.515-.073.197-.11.405-.11.625,0,.38.097.692.29.935.194.243.48.433.86.565l.97.35c.134.054.25.125.35.216.1.09.15.222.15.394,0,.213-.063.373-.19.481-.126.106-.296.159-.51.159-.233,0-.411-.071-.535-.215-.123-.143-.185-.332-.185-.564v-.181h-1.24ZM121.216,68.032h1.38v-3.23c0-.18.03-.332.09-.455.06-.123.14-.223.24-.3.1-.077.21-.132.33-.165.12-.033.24-.05.36-.05.073,0,.145.002.215.005.07.003.141.008.215.015v-1.319c-.04-.008-.082-.013-.125-.016-.044-.003-.085-.005-.125-.005-.287,0-.53.078-.73.235-.2.156-.37.364-.51.625h-.02v-.721h-1.32v5.381ZM118.915,68.032h1.32v-5.381h-1.38v3.57c0,.593-.244.89-.73.89-.207,0-.357-.055-.45-.164-.094-.11-.14-.306-.14-.586v-3.71h-1.38v3.99c0,.54.118.931.355,1.17.236.24.575.36,1.015.36.3,0,.566-.062.8-.186.233-.122.423-.317.57-.585h.02v.631ZM112.636,64.731v-.21c0-.127.011-.253.035-.38.023-.127.061-.242.115-.345.053-.104.125-.188.215-.25.09-.064.205-.095.345-.095s.255.027.345.085c.09.057.16.14.21.25.05.109.085.242.105.399.02.157.033.338.04.545h-1.41ZM115.366,65.552v-.31c0-.413-.027-.788-.08-1.125-.054-.338-.154-.623-.3-.86-.147-.237-.349-.42-.605-.55-.257-.13-.585-.195-.985-.195-.467,0-.84.077-1.12.23-.28.152-.495.359-.645.619-.15.261-.25.558-.3.891-.05.333-.075.68-.075,1.04,0,.333.015.672.045,1.015.03.343.111.653.245.93.133.277.34.503.62.676.28.173.67.26,1.17.26.66,0,1.143-.168,1.45-.505.306-.337.473-.818.5-1.445h-1.24c-.04.34-.114.593-.22.76-.107.167-.277.25-.51.25-.127,0-.234-.034-.32-.104-.087-.07-.157-.163-.21-.28-.054-.117-.092-.25-.115-.399-.024-.15-.035-.306-.035-.466v-.43h2.73ZM106.369,68.032h1.38v-3.57c0-.593.243-.89.73-.89.206,0,.356.055.45.164.093.11.14.306.14.586v3.71h1.38v-3.99c0-.54-.119-.931-.355-1.17-.237-.24-.575-.36-1.015-.36-.3,0-.567.062-.8.186-.234.122-.424.317-.57.585h-.02v-.631h-1.32v5.381ZM102.837,64.731v-.21c0-.127.011-.253.035-.38.023-.127.061-.242.115-.345.053-.104.125-.188.215-.25.09-.064.205-.095.345-.095s.255.027.345.085c.09.057.16.14.21.25.05.109.085.242.105.399.02.157.033.338.04.545h-1.41ZM105.567,65.552v-.31c0-.413-.027-.788-.08-1.125-.054-.338-.154-.623-.3-.86-.147-.237-.349-.42-.605-.55-.257-.13-.585-.195-.985-.195-.467,0-.84.077-1.12.23-.28.152-.495.359-.645.619-.15.261-.25.558-.3.891-.05.333-.075.68-.075,1.04,0,.333.015.672.045,1.015.03.343.111.653.245.93.133.277.34.503.62.676.28.173.67.26,1.17.26.66,0,1.143-.168,1.45-.505.306-.337.473-.818.5-1.445h-1.24c-.04.34-.114.593-.22.76-.107.167-.277.25-.51.25-.127,0-.234-.034-.32-.104-.087-.07-.157-.163-.21-.28-.054-.117-.092-.25-.115-.399-.024-.15-.035-.306-.035-.466v-.43h2.73ZM98.177,68.032h1.38v-3.23c0-.18.03-.332.09-.455.06-.123.14-.223.24-.3.1-.077.21-.132.33-.165.12-.033.24-.05.36-.05.073,0,.145.002.215.005.07.003.141.008.215.015v-1.319c-.04-.008-.082-.013-.125-.016-.044-.003-.085-.005-.125-.005-.287,0-.53.078-.73.235-.2.156-.37.364-.51.625h-.02v-.721h-1.32v5.381ZM94.633,64.017c.09-.297.288-.444.595-.444.3,0,.495.147.585.444.09.297.135.738.135,1.325s-.045,1.028-.135,1.325c-.09.297-.285.444-.585.444-.307,0-.505-.147-.595-.444-.09-.297-.135-.738-.135-1.325s.045-1.028.135-1.325M93.118,69.792h1.38v-2.26h.02c.146.213.311.372.495.479.183.108.405.16.665.16.566,0,.983-.222,1.25-.665.266-.443.4-1.165.4-2.165s-.134-1.722-.4-2.165c-.267-.443-.684-.665-1.25-.665-.28,0-.515.055-.705.165-.19.11-.362.292-.515.545h-.02v-.57h-1.32v7.141ZM89.585,64.731v-.21c0-.127.011-.253.035-.38.023-.127.061-.242.115-.345.053-.104.125-.188.215-.25.09-.064.205-.095.345-.095s.255.027.345.085c.09.057.16.14.21.25.05.109.085.242.105.399.02.157.033.338.04.545h-1.41ZM92.316,65.552v-.31c0-.413-.027-.788-.08-1.125-.054-.338-.154-.623-.3-.86-.147-.237-.349-.42-.605-.55-.257-.13-.585-.195-.985-.195-.467,0-.84.077-1.12.23-.28.152-.495.359-.645.619-.15.261-.25.558-.3.891-.05.333-.075.68-.075,1.04,0,.333.015.672.045,1.015.03.343.111.653.245.93.133.277.34.503.62.676.28.173.67.26,1.17.26.66,0,1.143-.168,1.45-.505.306-.337.473-.818.5-1.445h-1.24c-.04.34-.114.593-.22.76-.107.167-.277.25-.51.25-.127,0-.234-.034-.32-.104-.087-.07-.157-.163-.21-.28-.054-.117-.092-.25-.115-.399-.024-.15-.035-.306-.035-.466v-.43h2.73ZM84.926,68.032h1.38v-3.23c0-.18.03-.332.09-.455.06-.123.14-.223.24-.3.1-.077.21-.132.33-.165.12-.033.24-.05.36-.05.073,0,.145.002.215.005.07.003.141.008.215.015v-1.319c-.04-.008-.082-.013-.125-.016-.044-.003-.085-.005-.125-.005-.287,0-.53.078-.73.235-.2.156-.37.364-.51.625h-.02v-.721h-1.32v5.381ZM82.138,62.651h-.7v.94h.7v3.08c0,.272.016.5.05.68.033.181.095.325.185.436.09.109.218.188.385.234.166.047.386.07.66.07.16,0,.311-.007.455-.019.143-.014.291-.027.445-.04v-.96c-.047.007-.097.012-.15.015-.054.003-.107.005-.16.005-.2,0-.332-.045-.395-.135-.064-.09-.095-.242-.095-.455v-2.91h.8v-.94h-.8v-1.54h-1.38v1.54ZM76.751,68.032h1.38v-3.57c0-.593.243-.89.73-.89.206,0,.356.055.45.164.093.11.14.306.14.586v3.71h1.38v-3.99c0-.54-.119-.931-.355-1.17-.237-.24-.575-.36-1.015-.36-.3,0-.567.062-.8.186-.234.122-.424.317-.57.585h-.02v-.631h-1.32v5.381ZM71.901,60.892v7.141h4.09v-1.181h-2.65v-1.92h2.4v-1.18h-2.4v-1.68h2.55v-1.181h-3.99Z" fill="#00549f"/>
      <path d="M160.02,55.133v1.561h.52v.159c0,.188-.043.357-.13.511-.087.153-.217.247-.39.279v.7c.267-.025.485-.091.655-.194.17-.104.305-.236.405-.4.1-.163.168-.356.205-.58.037-.223.055-.468.055-.735v-1.3h-1.32ZM157.615,51.312v.601h-.02c-.133-.28-.303-.473-.51-.58-.207-.106-.407-.16-.6-.16-.373,0-.672.084-.895.25-.223.167-.393.382-.51.645-.117.264-.193.559-.23.885-.037.327-.055.647-.055.96,0,.979.138,1.679.415,2.095.277.417.688.625,1.235.625.22,0,.432-.06.635-.18.203-.12.375-.28.515-.48h.02v.71c0,.28-.057.513-.17.695-.113.184-.31.275-.59.275-.087,0-.168-.014-.245-.04-.077-.026-.148-.064-.215-.11-.14-.1-.21-.236-.21-.41h-1.32c0,.46.158.815.475,1.065.317.25.768.375,1.355.375.807,0,1.382-.171,1.725-.516.343-.343.515-.875.515-1.595v-5.11h-1.32ZM156.2,53.258c.017-.25.052-.45.105-.6.053-.15.127-.258.22-.325.093-.066.217-.1.37-.1.273,0,.462.137.565.409.103.274.155.737.155,1.391,0,.227-.012.435-.035.625-.023.19-.063.352-.12.484-.057.135-.133.239-.23.315-.097.077-.218.115-.365.115s-.265-.038-.355-.115c-.09-.076-.16-.18-.21-.309-.05-.131-.083-.278-.1-.445-.017-.166-.025-.343-.025-.53,0-.36.008-.665.025-.915M149.862,56.693h1.38v-3.57c0-.593.243-.89.73-.89.207,0,.357.055.45.165.093.109.14.305.14.585v3.71h1.38v-3.99c0-.54-.118-.93-.355-1.17-.237-.24-.575-.36-1.015-.36-.3,0-.567.062-.8.185-.233.124-.423.318-.57.585h-.02v-.631h-1.32v5.381ZM147.478,56.693h1.38v-5.381h-1.38v5.381ZM147.478,50.653h1.38v-1.181h-1.38v1.181ZM144.637,51.312h-.7v.94h.7v3.08c0,.274.017.5.05.68.033.181.095.325.185.436.09.109.218.188.385.234.167.048.387.07.66.07.16,0,.312-.006.455-.02.143-.014.292-.026.445-.04v-.96c-.047.007-.097.012-.15.015-.053.004-.107.005-.16.005-.2,0-.332-.045-.395-.135-.063-.09-.095-.241-.095-.455v-2.91h.8v-.94h-.8v-1.539h-1.38v1.539ZM140.776,53.393v-.21c0-.126.012-.253.035-.38.023-.126.062-.241.115-.345.053-.102.125-.185.215-.25.09-.064.205-.095.345-.095s.255.028.345.085c.09.057.16.14.21.25.05.109.085.244.105.399.02.157.033.339.04.545h-1.41ZM143.506,54.213v-.31c0-.413-.027-.788-.08-1.125-.053-.336-.153-.623-.3-.86-.147-.236-.348-.42-.605-.55-.257-.13-.585-.195-.985-.195-.467,0-.84.077-1.12.23-.28.153-.495.359-.645.62-.15.26-.25.557-.3.89-.05.334-.075.68-.075,1.04,0,.334.015.672.045,1.015.03.344.112.654.245.931.133.276.34.502.62.675.28.174.67.26,1.17.26.66,0,1.143-.168,1.45-.505.307-.336.473-.818.5-1.445h-1.24c-.04.34-.113.594-.22.76-.107.167-.277.25-.51.25-.127,0-.233-.034-.32-.104-.087-.07-.157-.163-.21-.28-.053-.116-.092-.25-.115-.399-.023-.15-.035-.306-.035-.466v-.43h2.73ZM134.695,49.553v7.141h1.38v-1.57l.49-.64,1.15,2.21h1.52l-1.78-3.261,1.55-2.12h-1.52l-1.39,2.011h-.02v-3.771h-1.38ZM131.233,56.693h1.38v-3.23c0-.18.03-.331.09-.455.06-.123.14-.223.24-.3.1-.076.21-.131.33-.165.12-.033.24-.05.36-.05.074,0,.145.002.215.005.07.004.142.009.215.015v-1.319c-.04-.007-.081-.012-.125-.016-.043-.003-.085-.005-.125-.005-.286,0-.53.079-.73.235-.2.157-.37.365-.51.625h-.02v-.721h-1.32v5.381ZM128.907,55.062c0,.154-.026.282-.08.386-.053.104-.121.188-.205.255-.083.066-.175.115-.275.145-.1.03-.196.045-.29.045-.186,0-.32-.072-.4-.22-.08-.146-.12-.323-.12-.53,0-.239.06-.43.18-.569.12-.141.32-.24.6-.3.087-.021.184-.052.29-.096.107-.043.207-.1.3-.175v1.06ZM127.627,52.963v-.15c0-.213.054-.383.16-.51.107-.126.267-.189.48-.189.234,0,.399.059.495.175.097.117.145.279.145.485,0,.18-.04.316-.12.409-.08.095-.223.167-.43.221l-.78.21c-.24.066-.445.144-.615.229-.17.087-.31.195-.42.325-.11.13-.191.287-.245.47-.053.185-.08.402-.08.655,0,.18.024.362.07.545.047.185.12.349.22.495.1.148.234.267.4.36.167.094.37.14.61.14.334,0,.605-.046.815-.14.21-.094.395-.28.555-.561h.02c.02.094.042.19.065.285.024.097.059.189.105.275h1.32c-.066-.16-.111-.311-.135-.45-.023-.141-.035-.336-.035-.59v-2.83c0-.24-.025-.461-.075-.665-.05-.203-.145-.378-.285-.525-.14-.146-.338-.26-.595-.34-.256-.08-.588-.12-.995-.12-.26,0-.505.029-.735.085-.23.058-.43.15-.6.28-.17.13-.305.302-.405.515-.1.214-.15.475-.15.78v.13h1.24ZM119.02,56.693h1.321v-5.7h.019l1.27,5.7h1.12l1.27-5.7h.02v5.7h1.32v-7.141h-2.13l-1.03,5.04h-.02l-1.02-5.04h-2.14v7.141ZM114.231,55.133v1.561h.52v.159c0,.188-.044.357-.13.511-.087.153-.217.247-.39.279v.7c.266-.025.485-.091.655-.194.17-.104.305-.236.405-.4.1-.163.168-.356.205-.58.036-.223.055-.468.055-.735v-1.3h-1.32ZM109.092,56.693h1.38v-3.57c0-.593.243-.89.73-.89.206,0,.356.055.45.165.093.109.14.305.14.585v3.71h1.38v-3.99c0-.54-.119-.93-.355-1.17-.237-.24-.575-.36-1.015-.36-.3,0-.567.062-.8.185-.234.124-.424.318-.57.585h-.02v-.631h-1.32v5.381ZM105.447,53.243c.013-.233.045-.434.095-.601.05-.166.123-.296.22-.39.096-.093.231-.14.405-.14.28,0,.473.147.58.439.106.294.16.777.16,1.45s-.054,1.157-.16,1.45c-.107.294-.3.44-.58.44-.174,0-.309-.046-.405-.14-.097-.093-.17-.223-.22-.39-.05-.166-.082-.366-.095-.601-.014-.232-.02-.485-.02-.76,0-.272.006-.526.02-.76M104.147,55.243c.066.353.18.649.34.89.16.24.376.419.65.535.273.117.616.172,1.03.165.393,0,.725-.06.995-.184.27-.123.488-.304.655-.54.166-.236.286-.531.36-.886.073-.353.11-.76.11-1.22,0-.466-.034-.878-.1-1.235-.067-.355-.18-.654-.34-.895-.16-.24-.377-.418-.65-.535-.274-.116-.617-.171-1.03-.165-.394,0-.725.062-.995.185-.27.124-.489.304-.655.54-.167.236-.287.531-.36.885-.074.354-.11.76-.11,1.22,0,.474.033.887.1,1.24M101.818,56.693h1.38v-5.381h-1.38v5.381ZM101.818,50.653h1.38v-1.181h-1.38v1.181ZM98.978,51.312h-.7v.94h.7v3.08c0,.274.016.5.05.68.033.181.095.325.185.436.09.109.218.188.385.234.166.048.386.07.66.07.16,0,.311-.006.455-.02.143-.014.292-.026.445-.04v-.96c-.047.007-.097.012-.15.015-.053.004-.107.005-.16.005-.2,0-.332-.045-.395-.135-.064-.09-.095-.241-.095-.455v-2.91h.8v-.94h-.8v-1.539h-1.38v1.539ZM96.325,55.062c0,.154-.027.282-.08.386-.053.104-.122.188-.205.255-.083.066-.175.115-.275.145-.1.03-.197.045-.29.045-.187,0-.32-.072-.4-.22-.08-.146-.12-.323-.12-.53,0-.239.06-.43.18-.569.12-.141.32-.24.6-.3.087-.021.183-.052.29-.096.107-.043.207-.1.3-.175v1.06ZM95.045,52.963v-.15c0-.213.053-.383.16-.51.107-.126.267-.189.48-.189.233,0,.398.059.495.175.097.117.145.279.145.485,0,.18-.04.316-.12.409-.08.095-.223.167-.43.221l-.78.21c-.24.066-.445.144-.615.229-.17.087-.31.195-.42.325-.11.13-.192.287-.245.47-.053.185-.08.402-.08.655,0,.18.023.362.07.545.047.185.12.349.22.495.1.148.233.267.4.36.167.094.37.14.61.14.333,0,.605-.046.815-.14.21-.094.395-.28.555-.561h.02c.02.094.042.19.065.285.023.097.058.189.105.275h1.32c-.067-.16-.112-.311-.135-.45-.023-.141-.035-.336-.035-.59v-2.83c0-.24-.025-.461-.075-.665-.05-.203-.145-.378-.285-.525-.14-.146-.338-.26-.595-.34-.257-.08-.588-.12-.995-.12-.26,0-.505.029-.735.085-.23.058-.43.15-.6.28-.17.13-.305.302-.405.515-.1.214-.15.475-.15.78v.13h1.24ZM91.215,55.163h-.02l-.77-3.851h-1.44l1.39,5.381h1.6l1.35-5.381h-1.38l-.73,3.851ZM85.825,53.243c.014-.233.045-.434.095-.601.05-.166.124-.296.22-.39.097-.093.232-.14.405-.14.28,0,.474.147.58.439.107.294.16.777.16,1.45s-.053,1.157-.16,1.45c-.106.294-.3.44-.58.44-.173,0-.308-.046-.405-.14-.096-.093-.17-.223-.22-.39-.05-.166-.081-.366-.095-.601-.013-.232-.02-.485-.02-.76,0-.272.007-.526.02-.76M84.525,55.243c.067.353.18.649.34.89.16.24.377.419.65.535.274.117.617.172,1.03.165.394,0,.725-.06.995-.184.27-.123.489-.304.655-.54.167-.236.287-.531.36-.886.074-.353.11-.76.11-1.22,0-.466-.033-.878-.1-1.235-.066-.355-.18-.654-.34-.895-.16-.24-.376-.418-.65-.535-.273-.116-.616-.171-1.03-.165-.393,0-.725.062-.995.185-.27.124-.488.304-.655.54-.166.236-.286.531-.36.885-.073.354-.11.76-.11,1.22,0,.474.034.887.1,1.24M79.528,56.693h1.38v-3.57c0-.593.244-.89.73-.89.207,0,.357.055.45.165.094.109.14.305.14.585v3.71h1.38v-3.99c0-.54-.118-.93-.355-1.17-.236-.24-.575-.36-1.015-.36-.3,0-.566.062-.8.185-.233.124-.423.318-.57.585h-.02v-.631h-1.32v5.381ZM74.47,56.693h1.38v-3.57c0-.593.244-.89.73-.89.207,0,.357.055.45.165.094.109.14.305.14.585v3.71h1.38v-3.99c0-.54-.118-.93-.355-1.17-.236-.24-.575-.36-1.015-.36-.3,0-.566.062-.8.185-.233.124-.423.318-.57.585h-.02v-.631h-1.32v5.381ZM73.41,49.553h-1.44v7.141h1.44v-7.141Z" fill="#00549f"/>
      <path d="M117.171,43.795v1.56h.52v.16c0,.187-.044.357-.13.51-.087.153-.217.247-.39.28v.7c.266-.027.485-.092.655-.195.17-.103.305-.237.405-.4.1-.163.168-.357.205-.58.036-.223.055-.468.055-.735v-1.3h-1.32ZM112.957,47.114h.56c.32,0,.585-.023.795-.069.21-.047.39-.146.54-.295.15-.15.3-.417.45-.8s.245-.702.285-.955l1.3-5.02h-1.38l-.7,3.72h-.02l-.8-3.72h-1.44l1.51,5.38c-.02.24-.085.427-.195.56-.11.133-.292.2-.545.2-.12,0-.24-.01-.36-.03v1.03ZM110.591,39.975v.6h-.02c-.134-.28-.304-.473-.51-.58-.207-.107-.407-.16-.6-.16-.374,0-.672.083-.895.25-.224.167-.394.382-.51.645-.117.263-.194.558-.23.885-.037.327-.055.647-.055.96,0,.98.138,1.678.415,2.095.276.417.688.625,1.235.625.22,0,.431-.06.635-.18.203-.12.375-.28.515-.48h.02v.71c0,.28-.057.512-.17.695-.114.183-.31.275-.59.275-.087,0-.169-.013-.245-.04-.077-.027-.149-.063-.215-.11-.14-.1-.21-.237-.21-.41h-1.32c0,.46.158.815.475,1.064.316.25.768.375,1.355.375.806,0,1.381-.172,1.725-.515.343-.343.515-.875.515-1.595v-5.11h-1.32ZM109.176,41.92c.016-.25.051-.45.105-.6.053-.15.126-.258.22-.325.093-.067.216-.1.37-.1.273,0,.461.137.565.41.103.273.155.737.155,1.39,0,.227-.012.435-.035.625-.024.19-.064.352-.12.485-.057.133-.134.238-.23.315-.097.077-.219.115-.365.115-.147,0-.265-.038-.355-.115-.09-.077-.16-.18-.21-.31-.05-.13-.084-.278-.1-.445-.017-.167-.025-.343-.025-.53,0-.36.008-.665.025-.915M104.241,41.905c.013-.233.045-.433.095-.6.05-.167.123-.297.22-.39.096-.093.231-.14.405-.14.28,0,.473.147.58.44.106.293.16.777.16,1.45s-.054,1.157-.16,1.45c-.107.293-.3.44-.58.44-.174,0-.309-.047-.405-.14-.097-.093-.17-.223-.22-.39-.05-.167-.082-.367-.095-.6-.014-.233-.02-.487-.02-.76s.006-.527.02-.76M102.941,43.905c.066.353.18.65.34.89.16.24.376.418.65.535.273.117.616.172,1.03.165.393,0,.725-.062.995-.185.27-.123.488-.303.655-.54.166-.237.286-.532.36-.885.073-.353.11-.76.11-1.22,0-.467-.034-.878-.1-1.235-.067-.357-.18-.655-.34-.895-.16-.24-.377-.418-.65-.535-.274-.117-.617-.172-1.03-.165-.394,0-.725.062-.995.185-.27.123-.489.303-.655.54-.167.237-.287.532-.36.885-.074.353-.11.76-.11,1.22,0,.473.033.887.1,1.24M100.612,45.354h1.38v-7.14h-1.38v7.14ZM96.934,41.905c.013-.233.045-.433.095-.6.05-.167.123-.297.22-.39.096-.093.231-.14.405-.14.28,0,.473.147.58.44.106.293.16.777.16,1.45s-.054,1.157-.16,1.45c-.107.293-.3.44-.58.44-.174,0-.309-.047-.405-.14-.097-.093-.17-.223-.22-.39-.05-.167-.082-.367-.095-.6-.014-.233-.02-.487-.02-.76s.006-.527.02-.76M95.634,43.905c.066.353.18.65.34.89.16.24.376.418.65.535.273.117.616.172,1.03.165.393,0,.725-.062.995-.185.27-.123.488-.303.655-.54.166-.237.286-.532.36-.885.073-.353.11-.76.11-1.22,0-.467-.034-.878-.1-1.235-.067-.357-.18-.655-.34-.895-.16-.24-.377-.418-.65-.535-.274-.117-.617-.172-1.03-.165-.394,0-.725.062-.995.185-.27.123-.489.303-.655.54-.167.237-.287.532-.36.885-.074.353-.11.76-.11,1.22,0,.473.033.887.1,1.24M90.637,45.354h1.38v-3.57c0-.593.243-.89.73-.89.206,0,.356.055.45.165.093.11.14.305.14.585v3.71h1.38v-3.99c0-.54-.119-.93-.355-1.17-.237-.24-.575-.36-1.015-.36-.3,0-.567.062-.8.185-.234.123-.424.318-.57.585h-.02v-.63h-1.32v5.38ZM85.579,45.354h1.38v-3.57c0-.593.243-.89.73-.89.206,0,.356.055.45.165.093.11.14.305.14.585v3.71h1.38v-3.99c0-.54-.119-.93-.355-1.17-.237-.24-.575-.36-1.015-.36-.607,0-1.044.23-1.31.69h-.02v-2.31h-1.38v7.14ZM84.789,41.915c0-.64-.162-1.147-.485-1.52-.324-.373-.805-.56-1.445-.56-.32,0-.614.043-.88.13-.267.087-.497.238-.69.455-.194.217-.344.507-.45.87-.107.363-.16.822-.16,1.375,0,.54.043.992.13,1.355.086.363.215.653.385.87.17.217.383.372.64.465.256.093.558.14.905.14.733,0,1.258-.19,1.575-.57.316-.38.475-.923.475-1.63h-1.32c0,.44-.053.76-.16.96-.107.2-.277.3-.51.3-.154,0-.279-.035-.375-.105-.097-.07-.172-.182-.225-.335-.054-.153-.09-.348-.11-.585-.02-.237-.03-.522-.03-.855,0-.307.01-.577.03-.81s.056-.425.11-.575c.053-.15.131-.263.235-.34.103-.077.241-.115.415-.115.126,0,.231.032.315.095.083.063.146.147.19.25.043.103.073.22.09.35.016.13.025.258.025.385h1.32ZM77.338,42.055v-.21c0-.127.012-.253.035-.38.023-.127.062-.242.115-.345.053-.103.125-.187.215-.25.09-.063.205-.095.345-.095s.255.028.345.085c.09.057.16.14.21.25.05.11.085.243.105.4.02.157.033.338.04.545h-1.41ZM80.068,42.874v-.31c0-.413-.027-.788-.08-1.125-.053-.337-.153-.623-.3-.86-.147-.237-.348-.42-.605-.55-.257-.13-.585-.195-.985-.195-.467,0-.84.077-1.12.23-.28.153-.495.36-.645.62-.15.26-.25.557-.3.89s-.075.68-.075,1.04c0,.333.015.672.045,1.015.03.343.112.653.245.93.133.277.34.502.62.675.28.173.67.26,1.17.26.66,0,1.143-.168,1.45-.505.307-.337.473-.818.5-1.445h-1.24c-.04.34-.113.593-.22.76-.107.167-.277.25-.51.25-.127,0-.233-.035-.32-.105s-.157-.163-.21-.28c-.053-.117-.092-.25-.115-.4-.023-.15-.035-.305-.035-.465v-.43h2.73ZM71.52,38.215v1.18h1.56v5.96h1.44v-5.96h1.56v-1.18h-4.56Z" fill="#00549f"/>
      <path d="M128.153,32.386c0,.153-.026.282-.08.385-.053.103-.121.188-.205.255-.083.067-.175.115-.275.145-.1.03-.196.045-.29.045-.186,0-.32-.073-.4-.22-.08-.147-.12-.323-.12-.53,0-.24.06-.43.18-.57.12-.14.32-.24.6-.3.087-.02.184-.052.29-.095.107-.043.207-.102.3-.175v1.06ZM126.873,30.286v-.15c0-.213.054-.383.16-.51.107-.127.267-.19.48-.19.234,0,.399.058.495.175.097.117.145.278.145.485,0,.18-.04.317-.12.41-.08.093-.223.167-.43.22l-.78.21c-.24.067-.445.143-.615.23-.17.087-.31.195-.42.325-.11.13-.191.287-.245.47-.053.183-.08.402-.08.655,0,.18.024.362.07.545.047.183.12.348.22.495.1.147.234.267.4.36.167.093.37.14.61.14.334,0,.605-.047.815-.14.21-.093.395-.28.555-.56h.02c.02.093.042.188.065.285.024.097.059.188.105.275h1.32c-.066-.16-.111-.31-.135-.45-.023-.14-.035-.337-.035-.59v-2.83c0-.24-.025-.462-.075-.665-.05-.203-.145-.378-.285-.525-.14-.147-.338-.26-.595-.34-.256-.08-.588-.12-.995-.12-.26,0-.505.028-.735.085-.23.057-.43.15-.6.28-.17.13-.305.302-.405.515s-.15.473-.15.78v.13h1.24ZM122.15,30.716v-.21c0-.127.012-.253.035-.38.024-.127.062-.242.115-.345.054-.103.125-.187.215-.25.09-.063.205-.095.345-.095s.255.028.345.085c.09.057.16.14.21.25.05.11.085.243.105.4.02.157.034.338.04.545h-1.41ZM124.88,31.536v-.31c0-.413-.026-.788-.08-1.125-.053-.337-.153-.623-.3-.86-.146-.237-.348-.42-.605-.55-.256-.13-.585-.195-.985-.195-.466,0-.84.077-1.12.23-.28.153-.495.36-.645.62-.15.26-.25.557-.3.89-.05.333-.075.68-.075,1.04,0,.333.015.672.045,1.015.03.343.112.653.245.93.134.277.34.502.62.675.28.173.67.26,1.17.26.66,0,1.144-.168,1.45-.505.307-.337.474-.818.5-1.445h-1.24c-.04.34-.113.593-.22.76-.106.167-.276.25-.51.25-.126,0-.233-.035-.32-.105-.086-.07-.156-.163-.21-.28-.053-.117-.091-.25-.115-.4-.023-.15-.035-.305-.035-.465v-.43h2.73ZM117.49,34.016h1.38v-3.23c0-.18.03-.332.09-.455.06-.123.14-.223.24-.3.1-.077.21-.132.33-.165.12-.033.24-.05.36-.05.074,0,.145.002.215.005.07.003.142.008.215.015v-1.32c-.04-.007-.081-.012-.125-.015-.043-.003-.085-.005-.125-.005-.286,0-.53.078-.73.235-.2.157-.37.365-.51.625h-.02v-.72h-1.32v5.38ZM111.307,34.016h1.5l.33-1.51h1.9l.33,1.51h1.5l-1.89-7.14h-1.78l-1.89,7.14ZM114.077,28.116h.02l.69,3.21h-1.4l.69-3.21ZM104.368,34.016h1.38v-3.57c0-.593.243-.89.73-.89.206,0,.356.055.45.165.093.11.14.305.14.585v3.71h1.38v-3.99c0-.54-.119-.93-.355-1.17-.237-.24-.575-.36-1.015-.36-.607,0-1.044.23-1.31.69h-.02v-2.31h-1.38v7.14ZM103.578,30.576c0-.64-.162-1.147-.485-1.52-.324-.373-.805-.56-1.445-.56-.32,0-.614.043-.88.13-.267.087-.497.238-.69.455-.194.217-.344.507-.45.87-.107.363-.16.822-.16,1.375,0,.54.043.992.13,1.355.086.363.215.653.385.87.17.217.383.372.64.465.256.093.558.14.905.14.733,0,1.258-.19,1.575-.57.316-.38.475-.923.475-1.63h-1.32c0,.44-.054.76-.16.96-.107.2-.277.3-.51.3-.154,0-.279-.035-.375-.105-.097-.07-.172-.182-.225-.335-.054-.153-.09-.348-.11-.585-.02-.237-.03-.522-.03-.855,0-.307.01-.577.03-.81.02-.233.056-.425.11-.575.053-.15.131-.263.235-.34.103-.077.241-.115.415-.115.126,0,.231.032.315.095.083.063.146.147.19.25.043.103.073.22.09.35.016.13.025.258.025.385h1.32ZM96.203,34.016h1.38v-3.23c0-.18.03-.332.09-.455.06-.123.14-.223.24-.3.1-.077.21-.132.33-.165.12-.033.24-.05.36-.05.073,0,.145.002.215.005.07.003.141.008.215.015v-1.32c-.04-.007-.082-.012-.125-.015-.044-.003-.085-.005-.125-.005-.287,0-.53.078-.73.235-.2.157-.37.365-.51.625h-.02v-.72h-1.32v5.38ZM93.876,32.386c0,.153-.027.282-.08.385-.054.103-.122.188-.205.255-.084.067-.175.115-.275.145-.1.03-.197.045-.29.045-.187,0-.32-.073-.4-.22-.08-.147-.12-.323-.12-.53,0-.24.06-.43.18-.57.12-.14.32-.24.6-.3.086-.02.183-.052.29-.095.106-.043.206-.102.3-.175v1.06ZM92.597,30.286v-.15c0-.213.053-.383.16-.51.106-.127.266-.19.48-.19.233,0,.398.058.495.175.096.117.145.278.145.485,0,.18-.04.317-.12.41-.08.093-.224.167-.43.22l-.78.21c-.24.067-.445.143-.615.23-.17.087-.31.195-.42.325-.11.13-.192.287-.245.47-.054.183-.08.402-.08.655,0,.18.023.362.07.545.046.183.12.348.22.495.1.147.233.267.4.36.166.093.37.14.61.14.333,0,.605-.047.815-.14.21-.093.395-.28.555-.56h.02c.02.093.041.188.065.285.023.097.058.188.105.275h1.32c-.067-.16-.112-.31-.135-.45-.024-.14-.035-.337-.035-.59v-2.83c0-.24-.025-.462-.075-.665-.05-.203-.145-.378-.285-.525-.14-.147-.339-.26-.595-.34-.257-.08-.589-.12-.995-.12-.26,0-.505.028-.735.085-.23.057-.43.15-.6.28-.17.13-.305.302-.405.515-.1.213-.15.473-.15.78v.13h1.24ZM87.874,30.716v-.21c0-.127.011-.253.035-.38.023-.127.061-.242.115-.345.053-.103.125-.187.215-.25.09-.063.205-.095.345-.095s.255.028.345.085c.09.057.16.14.21.25s.085.243.105.4c.02.157.033.338.04.545h-1.41ZM90.603,31.536v-.31c0-.413-.027-.788-.08-1.125-.054-.337-.154-.623-.3-.86-.147-.237-.349-.42-.605-.55-.257-.13-.585-.195-.985-.195-.467,0-.84.077-1.12.23s-.495.36-.645.62c-.15.26-.25.557-.3.89-.05.333-.075.68-.075,1.04,0,.333.015.672.045,1.015.03.343.111.653.245.93.133.277.34.502.62.675.28.173.67.26,1.17.26.66,0,1.143-.168,1.45-.505.306-.337.473-.818.5-1.445h-1.24c-.04.34-.114.593-.22.76-.107.167-.277.25-.51.25-.127,0-.234-.035-.32-.105-.087-.07-.157-.163-.21-.28-.054-.117-.092-.25-.115-.4-.024-.15-.035-.305-.035-.465v-.43h2.73ZM81.932,32.256v.19c0,.26.03.495.09.705.06.21.165.39.315.54.15.15.352.265.605.345.253.08.577.12.97.12.287,0,.553-.035.8-.105.247-.07.458-.175.635-.315.177-.14.315-.317.415-.53s.15-.46.15-.74c0-.407-.09-.728-.27-.965-.18-.237-.487-.428-.92-.575l-.83-.28c-.233-.073-.392-.163-.475-.27s-.125-.227-.125-.36c0-.193.065-.338.195-.435.13-.097.282-.145.455-.145.227,0,.385.065.475.195.09.13.135.335.135.615h1.24v-.22c0-.487-.15-.863-.45-1.13-.3-.267-.763-.4-1.39-.4-.353,0-.655.043-.905.13s-.455.203-.615.35c-.16.147-.277.318-.35.515-.073.197-.11.405-.11.625,0,.38.097.692.29.935.193.243.48.432.86.565l.97.35c.133.053.25.125.35.215.1.09.15.222.15.395,0,.213-.063.373-.19.48-.127.107-.297.16-.51.16-.233,0-.412-.072-.535-.215-.123-.143-.185-.332-.185-.565v-.18h-1.24ZM78.624,30.716v-.21c0-.127.012-.253.035-.38.023-.127.062-.242.115-.345.053-.103.125-.187.215-.25.09-.063.205-.095.345-.095s.255.028.345.085c.09.057.16.14.21.25s.085.243.105.4c.02.157.033.338.04.545h-1.41ZM81.353,31.536v-.31c0-.413-.027-.788-.08-1.125-.053-.337-.153-.623-.3-.86-.147-.237-.348-.42-.605-.55-.257-.13-.585-.195-.985-.195-.467,0-.84.077-1.12.23s-.495.36-.645.62c-.15.26-.25.557-.3.89-.05.333-.075.68-.075,1.04,0,.333.015.672.045,1.015.03.343.112.653.245.93.133.277.34.502.62.675.28.173.67.26,1.17.26.66,0,1.143-.168,1.45-.505.307-.337.473-.818.5-1.445h-1.24c-.04.34-.113.593-.22.76-.107.167-.277.25-.51.25-.127,0-.233-.035-.32-.105-.087-.07-.157-.163-.21-.28-.053-.117-.092-.25-.115-.4-.023-.15-.035-.305-.035-.465v-.43h2.73ZM73.341,27.936h.68c.667,0,1,.33,1,.99,0,.387-.093.662-.28.825-.187.163-.453.245-.8.245h-.6v-2.06ZM71.901,34.016h1.44v-3.02h.761c.296,0,.507.08.632.24.125.16.194.38.207.66l.04,1.37c.007.14.02.275.04.405.021.13.068.245.142.345h1.578v-.06c-.133-.073-.218-.21-.255-.41-.037-.2-.058-.49-.065-.87-.007-.38-.025-.7-.055-.96-.03-.26-.085-.475-.165-.645-.08-.17-.193-.3-.34-.39-.147-.09-.343-.152-.59-.185v-.02c.407-.087.707-.282.9-.585.193-.303.29-.695.29-1.175,0-.62-.167-1.082-.5-1.385-.333-.303-.8-.455-1.4-.455h-2.66v7.14Z" fill="#00549f"/>
      <path d="M61.825,53.334h-5.119v-7.016h5.051v1.061h-3.823v1.839h3.538v1.002h-3.538v2.054h3.891v1.06ZM55.374,53.334h-1.169v-5.414h-.02l-1.946,5.414h-1.012l-1.945-5.414h-.02v5.414h-1.169v-7.016h1.729l1.936,5.493h.02l1.886-5.493h1.71v7.016ZM46.751,53.334h-1.228v-7.016h1.228v7.016ZM44.424,47.379h-2.231v5.955h-1.228v-5.955h-2.221v-1.061h5.68v1.061ZM64.435,47.86v-25.131h-4.48v21.643h-1.715v-21.643h-4.133v21.643h-1.715v-21.643h-4.133v21.643h-1.715v-21.643h-4.132v21.643h-1.715v-21.643h-1.393c-13.88,0-25.131,11.252-25.131,25.131s11.251,25.131,25.131,25.131,25.131-11.252,25.131-25.131" fill="#00549f"/>
    </g>
  </g>
</svg>